# xmcd
#
# Track frame offsets:
#	150
#	20907
#	43645
#	65755
#	87802
#	107190
#	124312
#	145690
#	165607
#	185537
#	208262
#	226507
#	247677
#	263610
#	282855
#	304137
#
# Disc length: 4299 seconds
#
# Revision: 1
# Processed by: cddbd v1.5.1PL0 Copyright (c) Steve Scherf et al.
# Submitted via: CDex 1.50Beta5
#
DISCID=de10c910
DTITLE=大月みやこ - 全曲集
DYEAR=1996
DGENRE=World
TTITLE0=夢日記
TTITLE1=花しずく
TTITLE2=夜の雪
TTITLE3=恋ものがたり
TTITLE4=愛愁
TTITLE5=今はこのまま
TTITLE6=愛にゆれて…
TTITLE7=乱れ花
TTITLE8=女の港
TTITLE9=命の花
TTITLE10=豊予海峡
TTITLE11=女の舞
TTITLE12=大阪ふたりづれ
TTITLE13=かくれ宿
TTITLE14=女の駅
TTITLE15=白い海峡
EXTD=
EXTT0=
EXTT1=
EXTT2=
EXTT3=
EXTT4=
EXTT5=
EXTT6=
EXTT7=
EXTT8=
EXTT9=
EXTT10=
EXTT11=
EXTT12=
EXTT13=
EXTT14=
EXTT15=
PLAYORDER=
